HIERARCHY
ROOT Hips
{
	OFFSET 0.000000 0.000000 0.000000
	CHANNELS 6 Xposition Yposition Zposition Zrotation Yrotation Xrotation 
	JOINT LHipJoint
	{
		OFFSET 0.000000 0.000000 0.000000
		CHANNELS 3 Zrotation Yrotation Xrotation
		JOINT LeftUpLeg
		{
			OFFSET 1.363060 -1.794630 0.839290
			CHANNELS 3 Zrotation Yrotation Xrotation
			JOINT LeftLeg
			{
				OFFSET 2.448110 -6.726130 0.000000
				CHANNELS 3 Zrotation Yrotation Xrotation
				JOINT LeftFoot
				{
					OFFSET 2.562200 -7.039590 0.000000
					CHANNELS 3 Zrotation Yrotation Xrotation
					JOINT LeftToeBase
					{
						OFFSET 0.157640 -0.433110 2.322550
						CHANNELS 3 Zrotation Yrotation Xrotation
						End Site
						{
							OFFSET 0.000000 0.000000 0.000000
						}
					}
				}
			}
		}
	}
	JOINT RHipJoint
	{
		OFFSET 0.000000 0.000000 0.000000
		CHANNELS 3 Zrotation Yrotation Xrotation
		JOINT RightUpLeg
		{
			OFFSET -1.305520 -1.794630 0.839290
			CHANNELS 3 Zrotation Yrotation Xrotation
			JOINT RightLeg
			{
				OFFSET -2.542530 -6.985550 0.000000
				CHANNELS 3 Zrotation Yrotation Xrotation
				JOINT RightFoot
				{
					OFFSET -2.568260 -7.056230 0.000000
					CHANNELS 3 Zrotation Yrotation Xrotation
					JOINT RightToeBase
					{
						OFFSET -0.164730 -0.452590 2.363150
						CHANNELS 3 Zrotation Yrotation Xrotation
						End Site
						{
							OFFSET 0.000000 0.000000 0.000000
						}
					}
				}
			}
		}
	}
	JOINT LowerBack
	{
		OFFSET 0.000000 0.000000 0.000000
		CHANNELS 3 Zrotation Yrotation Xrotation
		JOINT Spine
		{
			OFFSET 0.028270 2.035590 -0.193380
			CHANNELS 3 Zrotation Yrotation Xrotation
			JOINT Spine1
			{
				OFFSET 0.056720 2.048850 -0.042750
				CHANNELS 3 Zrotation Yrotation Xrotation
				JOINT Neck
				{
					OFFSET 0.000000 0.000000 0.000000
					CHANNELS 3 Zrotation Yrotation Xrotation
					JOINT Neck1
					{
						OFFSET -0.054170 1.746240 0.172020
						CHANNELS 3 Zrotation Yrotation Xrotation
						JOINT Head
						{
							OFFSET 0.104070 1.761360 -0.123970
							CHANNELS 3 Zrotation Yrotation Xrotation
							End Site
							{
								OFFSET 0.000000 0.000000 0.000000
							}
						}
					}
				}
				JOINT LeftShoulder
				{
					OFFSET 0.000000 0.000000 0.000000
					CHANNELS 3 Zrotation Yrotation Xrotation
					JOINT LeftArm
					{
						OFFSET 3.362410 1.200890 -0.311210
						CHANNELS 3 Zrotation Yrotation Xrotation
						JOINT LeftForeArm
						{
							OFFSET 4.983000 -0.000000 -0.000000
							CHANNELS 3 Zrotation Yrotation Xrotation
							JOINT LeftHand
							{
								OFFSET 3.483560 -0.000000 -0.000000
								CHANNELS 3 Zrotation Yrotation Xrotation
								JOINT LeftFingerBase
								{
									OFFSET 0.000000 0.000000 0.000000
									CHANNELS 3 Zrotation Yrotation Xrotation
									JOINT LeftHandIndex1
									{
										OFFSET 0.715260 -0.000000 -0.000000
										CHANNELS 3 Zrotation Yrotation Xrotation
										End Site
										{
											OFFSET 0.000000 0.000000 0.000000
										}
									}
								}
								JOINT LThumb
								{
									OFFSET 0.000000 0.000000 0.000000
									CHANNELS 3 Zrotation Yrotation Xrotation
									End Site
									{
										OFFSET 0.000000 0.000000 0.000000
									}
								}
							}
						}
					}
				}
				JOINT RightShoulder
				{
					OFFSET 0.000000 0.000000 0.000000
					CHANNELS 3 Zrotation Yrotation Xrotation
					JOINT RightArm
					{
						OFFSET -3.136600 1.374050 -0.404650
						CHANNELS 3 Zrotation Yrotation Xrotation
						JOINT RightForeArm
						{
							OFFSET -5.241900 -0.000000 -0.000000
							CHANNELS 3 Zrotation Yrotation Xrotation
							JOINT RightHand
							{
								OFFSET -3.444170 -0.000000 -0.000000
								CHANNELS 3 Zrotation Yrotation Xrotation
								JOINT RightFingerBase
								{
									OFFSET 0.000000 0.000000 0.000000
									CHANNELS 3 Zrotation Yrotation Xrotation
									JOINT RightHandIndex1
									{
										OFFSET -0.622530 -0.000000 -0.000000
										CHANNELS 3 Zrotation Yrotation Xrotation
										End Site
										{
											OFFSET 0.000000 0.000000 0.000000
										}
									}
								}
								JOINT RThumb
								{
									OFFSET 0.000000 0.000000 0.000000
									CHANNELS 3 Zrotation Yrotation Xrotation
									End Site
									{
										OFFSET 0.000000 0.000000 0.000000
									}
								}
							}
						}
					}
				}
			}
		}
	}
}
MOTION
Frames: 11
Frame Time: 0.008333
6.083256 17.517811 31.524451 -164.906059 -87.844776 -179.336778 12.069995 3.144582 -4.606373 -7.195126 -1.677686 0.876479 -4.675521 -0.850028 3.505726 -0.084220 6.824103 24.195729 0.000000 0.000000 0.000000 -15.049090 -0.343233 -3.668112 27.916567 24.917586 -12.817573 4.725813 -11.340459 20.502677 4.442446 -17.218075 -1.509079 -0.035300 1.212300 -3.333300 0.067056 0.627865 -19.517670 1.468320 -0.163039 -5.540263 0.292062 -0.631127 8.588579 -0.397698 1.007535 -18.485105 7.012977 1.011597 14.894665 -0.370900 1.305100 12.557700 -1.454960 -11.752075 1.291557 -80.447704 -41.421154 54.309907 151.389314 -33.351265 -112.243455 4.914170 -1.459942 -44.656281 24.985159 -7.144736 -0.947700 -7.125000 0.000000 0.000000 -3.061400 27.510000 1.302900 4.967772 13.230339 3.360447 74.332035 48.179600 57.992158 -149.082752 30.173054 -111.856909 -2.486406 0.449151 -36.456077 -23.240823 -14.504379 6.476200 7.125000 0.000000 0.000000 6.087800 -47.786000 -0.419900 
6.076359 17.517033 31.520336 -164.504717 -87.862360 -179.744837 12.059143 3.148287 -4.608938 -7.200975 -1.675759 0.868668 -4.675800 -0.846031 3.503353 -0.082544 6.828226 24.194112 0.000000 0.000000 0.000000 -15.069464 -0.343723 -3.683258 27.984853 24.923226 -12.743793 4.727355 -11.325799 20.495624 4.444506 -17.214728 -1.587261 -0.030300 1.123000 -3.087200 -0.060999 0.510330 -19.575561 1.505728 -0.288887 -5.516819 0.605212 -0.692641 8.820884 -1.195535 0.713137 -18.894331 7.602948 0.865165 14.704058 0.194100 1.200400 12.539000 -1.578595 -11.721693 1.274033 -80.966490 -41.231502 54.616914 151.621801 -33.276858 -112.346350 4.903509 -1.497447 -44.691502 24.582420 -7.270270 -0.979200 -7.125000 0.000000 0.000000 -3.341100 27.387500 1.432000 4.929463 13.245942 3.312093 74.908358 47.841049 58.598676 -149.477990 30.020339 -111.979847 -2.499992 0.442120 -36.620561 -23.734029 -14.248391 6.544800 7.125000 0.000000 0.000000 5.572700 -47.605500 -0.359300 
6.070797 17.515698 31.518889 -164.411766 -87.903081 -179.851343 12.058316 3.148618 -4.616136 -7.204332 -1.674682 0.864176 -4.675956 -0.843730 3.502002 -0.081626 6.830601 24.193172 0.000000 0.000000 0.000000 -15.068395 -0.353901 -3.696901 28.019476 24.857113 -12.689591 4.725960 -11.311528 20.493178 4.446310 -17.212435 -1.597119 -0.034400 1.197200 -3.291600 -0.166429 0.432021 -19.609709 1.540502 -0.373855 -5.490090 0.794855 -0.727019 8.969830 -1.329834 0.525620 -18.954101 7.828011 0.656174 14.366008 0.309800 1.113600 12.326200 -1.642588 -11.709747 1.287464 -81.523690 -41.029228 55.041734 151.814234 -33.218452 -112.462507 4.859576 -1.574738 -44.703867 23.836844 -7.395246 -0.996200 -7.125000 0.000000 0.000000 -3.845400 27.264900 1.660000 4.970698 13.251353 3.257629 75.367991 47.394823 58.901868 -149.877412 29.845345 -112.117764 -2.508873 0.439679 -37.208836 -24.153438 -13.774135 6.510100 7.125000 0.000000 0.000000 5.065300 -47.192300 -0.274700 
6.066682 17.514474 31.515775 -163.992619 -87.940258 179.696519 12.047464 3.161342 -4.609018 -7.210784 -1.672438 0.855494 -4.676237 -0.839153 3.499358 -0.080483 6.835293 24.191379 0.000000 0.000000 0.000000 -15.080051 -0.353416 -3.717310 28.087643 24.787866 -12.615188 4.724255 -11.294198 20.493988 4.447841 -17.207659 -1.624623 -0.031500 1.145900 -3.150400 -0.239489 0.421367 -19.581144 1.519269 -0.326978 -5.469373 0.701950 -0.701501 9.021732 -1.094188 0.376175 -18.959870 8.000757 0.379796 14.054621 0.297500 1.036600 12.138100 -1.703516 -11.708219 1.297146 -81.906729 -40.838365 55.446819 151.960567 -33.130647 -112.593165 4.758043 -1.619994 -44.953922 22.874824 -7.117201 -0.869800 -7.125000 0.000000 0.000000 -4.498100 27.514500 1.916800 5.002981 13.274833 3.184780 75.868479 46.807592 58.873276 -150.242029 29.696748 -112.242604 -2.501122 0.398255 -37.706788 -24.319867 -13.857639 6.587700 7.125000 0.000000 0.000000 4.924900 -47.284100 -0.278200 
6.062232 17.513139 31.512771 -163.629473 -87.974103 179.301711 12.037828 3.169194 -4.606432 -7.216297 -1.670564 0.848089 -4.676482 -0.835290 3.497113 -0.079315 6.839258 24.189851 0.000000 0.000000 0.000000 -15.091208 -0.356979 -3.734527 28.152782 24.728632 -12.541448 4.722830 -11.277897 20.494580 4.448135 -17.200004 -1.651031 -0.030200 1.122600 -3.086200 -0.329235 0.372207 -19.564997 1.528335 -0.352990 -5.449182 0.754350 -0.709209 9.105158 -1.063159 0.239226 -19.008767 8.211697 0.188558 13.763758 0.367400 0.974400 11.972500 -1.762429 -11.703082 1.306899 -82.398030 -40.651898 55.807817 152.122652 -33.058910 -112.717776 4.669825 -1.671919 -45.081215 21.990010 -6.922518 -0.780000 -7.125000 0.000000 0.000000 -5.102300 27.682800 2.155800 5.039206 13.294938 3.119975 76.347451 46.279722 59.029082 -150.591482 29.558809 -112.359470 -2.500076 0.374790 -38.206533 -24.571699 -13.708212 6.609700 7.125000 0.000000 0.000000 4.652400 -47.160800 -0.248600 
6.058450 17.511693 31.509657 -163.211029 -88.006845 178.844956 12.026202 3.178220 -4.601505 -7.221974 -1.668626 0.840458 -4.676733 -0.831307 3.494802 -0.078139 6.843341 24.188281 0.000000 0.000000 0.000000 -15.102847 -0.361521 -3.752256 28.225142 24.654942 -12.462133 4.721677 -11.258673 20.492680 4.445318 -17.183598 -1.664647 -0.029200 1.102800 -3.031700 -0.412102 0.324705 -19.526102 1.537715 -0.378873 -5.431972 0.784171 -0.715705 9.160099 -0.944191 0.152008 -19.026171 8.373832 0.039504 13.487870 0.385400 0.935100 11.812400 -1.808036 -11.701352 1.318297 -82.882997 -40.473103 56.119938 152.268162 -32.992598 -112.840116 4.570091 -1.720749 -45.202511 21.073421 -6.662405 -0.675100 -7.125000 0.000000 0.000000 -5.731500 27.906300 2.393500 5.085351 13.317464 3.054805 76.826533 45.736520 59.157405 -150.908725 29.446767 -112.464450 -2.496612 0.352646 -38.709472 -24.776056 -13.560293 6.615900 7.125000 0.000000 0.000000 4.423200 -47.030200 -0.222000 
6.055335 17.510247 31.506208 -162.718935 -88.035484 178.305207 12.011939 3.188299 -4.594277 -7.227941 -1.666581 0.832433 -4.676996 -0.827121 3.492372 -0.076905 6.847630 24.186635 0.000000 0.000000 0.000000 -15.117354 -0.365929 -3.770472 28.306453 24.575559 -12.379935 4.720632 -11.238924 20.491819 4.438815 -17.157038 -1.673768 -0.028000 1.080200 -2.969400 -0.489960 0.273228 -19.467478 1.549270 -0.412595 -5.417828 0.811174 -0.725152 9.196114 -0.805019 0.108771 -19.044878 8.514995 -0.053404 13.242374 0.391900 0.920200 11.676400 -1.843540 -11.699909 1.328611 -83.336818 -40.305703 56.368800 152.392350 -32.938957 -112.949589 4.471421 -1.761789 -45.304609 20.223541 -6.378757 -0.572100 -7.125000 0.000000 0.000000 -6.318600 28.147300 2.605200 5.134272 13.341939 2.991303 77.293337 45.201955 59.290724 -151.187745 29.362209 -112.554052 -2.492144 0.331918 -39.160041 -24.948246 -13.437616 6.620500 7.125000 0.000000 0.000000 4.230400 -46.919800 -0.200800 
6.052999 17.508912 31.502871 -162.165193 -88.060369 177.701672 11.995662 3.198780 -4.585520 -7.234017 -1.664498 0.824259 -4.677264 -0.822860 3.489899 -0.075639 6.851992 24.184963 0.000000 0.000000 0.000000 -15.133747 -0.370378 -3.788841 28.392620 24.491982 -12.297914 4.720095 -11.218224 20.489290 4.429243 -17.122319 -1.675876 -0.027100 1.061900 -2.919100 -0.563698 0.218153 -19.396282 1.564670 -0.456659 -5.406235 0.850272 -0.738775 9.218925 -0.670237 0.106626 -19.065707 8.635655 -0.087201 13.026086 0.394900 0.928500 11.561700 -1.868878 -11.697588 1.338214 -83.736124 -40.153425 56.554021 152.494662 -32.900202 -113.038796 4.387375 -1.793878 -45.388329 19.522648 -6.134035 -0.489700 -7.125000 0.000000 0.000000 -6.804900 28.351800 2.775000 5.184824 13.365617 2.931521 77.742023 44.691273 59.430908 -151.422412 29.310386 -112.625533 -2.487604 0.314513 -39.531412 -25.099860 -13.330608 6.624200 7.125000 0.000000 0.000000 4.061100 -46.823100 -0.183000 
6.051219 17.507688 31.499422 -161.561670 -88.080483 177.050303 11.978101 3.209951 -4.575309 -7.240187 -1.662373 0.815954 -4.677535 -0.818525 3.487385 -0.074388 6.856428 24.183267 0.000000 0.000000 0.000000 -15.151441 -0.373846 -3.807572 28.481135 24.406709 -12.220270 4.720077 -11.197509 20.484437 4.419134 -17.087523 -1.669621 -0.026800 1.056200 -2.903500 -0.632393 0.163320 -19.318095 1.579113 -0.502454 -5.396462 0.891593 -0.752524 9.226245 -0.548420 0.141503 -19.072784 8.748120 -0.067658 12.829701 0.405900 0.957300 11.455600 -1.887707 -11.693201 1.346546 -84.005903 -40.007096 56.677178 152.568354 -32.877526 -113.096901 4.334539 -1.814403 -45.474591 19.076617 -6.000978 -0.446400 -7.125000 0.000000 0.000000 -7.112400 28.458900 2.884000 5.233499 13.384609 2.877650 78.188545 44.212832 59.566874 -151.619438 29.286896 -112.680334 -2.483109 0.298823 -39.787915 -25.238206 -13.268766 6.640300 7.125000 0.000000 0.000000 3.916100 -46.770400 -0.171400 
6.049884 17.506687 31.495974 -160.931290 -88.095540 176.378369 11.960113 3.221223 -4.564523 -7.246279 -1.660268 0.807748 -4.677801 -0.814236 3.484900 -0.073182 6.860815 24.181593 0.000000 0.000000 0.000000 -15.170414 -0.375323 -3.825928 28.567045 24.330745 -12.151380 4.720900 -11.177914 20.476939 4.409524 -17.055959 -1.661495 -0.026600 1.053500 -2.896000 -0.697455 0.119618 -19.243757 1.591524 -0.536770 -5.387963 0.935391 -0.761099 9.228095 -0.442179 0.194902 -19.080572 8.851010 -0.018241 12.652973 0.420900 0.996500 11.361700 -1.899476 -11.688219 1.356263 -84.218370 -39.895492 56.782025 152.625465 -32.870010 -113.128113 4.310441 -1.815537 -45.602070 18.881238 -5.928139 -0.424500 -7.125000 0.000000 0.000000 -7.246600 28.517000 2.929100 5.277235 13.401301 2.828724 78.596729 43.774254 59.656763 -151.780702 29.284595 -112.719027 -2.480543 0.285842 -39.917036 -25.388769 -13.242237 6.673800 7.125000 0.000000 0.000000 3.770100 -46.757400 -0.163700 
6.048772 17.505686 31.492748 -160.314159 -88.106387 175.730015 11.943071 3.232200 -4.553897 -7.252034 -1.658273 0.799992 -4.678051 -0.810170 3.482549 -0.072098 6.864972 24.180010 0.000000 0.000000 0.000000 -15.189142 -0.374624 -3.843501 28.645952 24.265343 -12.096331 4.722122 -11.161183 20.468098 4.403549 -17.036971 -1.649232 -0.027100 1.062000 -2.919300 -0.757980 0.090073 -19.180405 1.599474 -0.554021 -5.380179 0.972791 -0.761979 9.224567 -0.338834 0.265429 -19.074372 8.944881 0.054309 12.485285 0.435700 1.044200 11.267600 -1.904799 -11.683116 1.368533 -84.354240 -39.819046 56.874389 152.666229 -32.874508 -113.132373 4.317253 -1.796862 -45.789720 18.947006 -5.929175 -0.426800 -7.125000 0.000000 0.000000 -7.198600 28.514900 2.909800 5.316034 13.413768 2.785493 78.968001 43.376677 59.686817 -151.909969 29.300025 -112.743632 -2.479415 0.275288 -39.931886 -25.545879 -13.248358 6.722100 7.125000 0.000000 0.000000 3.627200 -46.780200 -0.159600 
